<?xml version="1.0" encoding="UTF-8" standalone="no"?>
<!DOCTYPE svg PUBLIC "-//W3C//DTD SVG 1.1//EN"
 "http://www.w3.org/Graphics/SVG/1.1/DTD/svg11.dtd">
<!-- Generated by graphviz version 2.36.0 (20140111.2315)
 -->
<!-- Title: controllers_diagram Pages: 1 -->
<svg width="399pt" height="545pt"
 viewBox="0.00 0.00 399.00 545.00" xmlns="http://www.w3.org/2000/svg" xmlns:xlink="http://www.w3.org/1999/xlink">
<g id="graph0" class="graph" transform="scale(1 1) rotate(0) translate(4 541)">
<title>controllers_diagram</title>
<polygon fill="none" stroke="none" points="-4,4 -4,-541 395,-541 395,4 -4,4"/>
<!-- _diagram_info -->
<g id="node1" class="node"><title>_diagram_info</title>
<text text-anchor="start" x="144" y="-63.6" font-family="Times,serif" font-size="13.00">Controllers diagram</text>
<text text-anchor="start" x="144" y="-49.6" font-family="Times,serif" font-size="13.00">Date: May 08 2017 &#45; 12:32</text>
<text text-anchor="start" x="144" y="-35.6" font-family="Times,serif" font-size="13.00">Migration version: 20170506141217</text>
<text text-anchor="start" x="144" y="-21.6" font-family="Times,serif" font-size="13.00">Generated by RailRoady 1.5.2</text>
<text text-anchor="start" x="144" y="-7.6" font-family="Times,serif" font-size="13.00">http://railroady.prestonlee.com</text>
</g>
<!-- CatsController -->
<g id="node2" class="node"><title>CatsController</title>
<path fill="none" stroke="black" d="M12,-323.5C12,-323.5 84,-323.5 84,-323.5 90,-323.5 96,-329.5 96,-335.5 96,-335.5 96,-524.5 96,-524.5 96,-530.5 90,-536.5 84,-536.5 84,-536.5 12,-536.5 12,-536.5 6,-536.5 0,-530.5 0,-524.5 0,-524.5 0,-335.5 0,-335.5 0,-329.5 6,-323.5 12,-323.5"/>
<text text-anchor="middle" x="48" y="-521.3" font-family="Times,serif" font-size="14.00">CatsController</text>
<polyline fill="none" stroke="black" points="0,-513.5 96,-513.5 "/>
<text text-anchor="start" x="8" y="-498.3" font-family="Times,serif" font-size="14.00">create</text>
<text text-anchor="start" x="8" y="-483.3" font-family="Times,serif" font-size="14.00">destroy</text>
<text text-anchor="start" x="8" y="-468.3" font-family="Times,serif" font-size="14.00">edit</text>
<text text-anchor="start" x="8" y="-453.3" font-family="Times,serif" font-size="14.00">index</text>
<text text-anchor="start" x="8" y="-438.3" font-family="Times,serif" font-size="14.00">new</text>
<text text-anchor="start" x="8" y="-423.3" font-family="Times,serif" font-size="14.00">show</text>
<text text-anchor="start" x="8" y="-408.3" font-family="Times,serif" font-size="14.00">update</text>
<polyline fill="none" stroke="black" points="0,-400.5 96,-400.5 "/>
<polyline fill="none" stroke="black" points="0,-376.5 96,-376.5 "/>
<text text-anchor="start" x="8" y="-361.3" font-family="Times,serif" font-size="14.00">_layout</text>
<text text-anchor="start" x="8" y="-346.3" font-family="Times,serif" font-size="14.00">cat_params</text>
<text text-anchor="start" x="8" y="-331.3" font-family="Times,serif" font-size="14.00">set_cat</text>
</g>
<!-- EventsController -->
<g id="node3" class="node"><title>EventsController</title>
<path fill="none" stroke="black" d="M12,-68.5C12,-68.5 97,-68.5 97,-68.5 103,-68.5 109,-74.5 109,-80.5 109,-80.5 109,-269.5 109,-269.5 109,-275.5 103,-281.5 97,-281.5 97,-281.5 12,-281.5 12,-281.5 6,-281.5 0,-275.5 0,-269.5 0,-269.5 0,-80.5 0,-80.5 0,-74.5 6,-68.5 12,-68.5"/>
<text text-anchor="middle" x="54.5" y="-266.3" font-family="Times,serif" font-size="14.00">EventsController</text>
<polyline fill="none" stroke="black" points="0,-258.5 109,-258.5 "/>
<text text-anchor="start" x="8" y="-243.3" font-family="Times,serif" font-size="14.00">create</text>
<text text-anchor="start" x="8" y="-228.3" font-family="Times,serif" font-size="14.00">destroy</text>
<text text-anchor="start" x="8" y="-213.3" font-family="Times,serif" font-size="14.00">edit</text>
<text text-anchor="start" x="8" y="-198.3" font-family="Times,serif" font-size="14.00">index</text>
<text text-anchor="start" x="8" y="-183.3" font-family="Times,serif" font-size="14.00">new</text>
<text text-anchor="start" x="8" y="-168.3" font-family="Times,serif" font-size="14.00">show</text>
<text text-anchor="start" x="8" y="-153.3" font-family="Times,serif" font-size="14.00">update</text>
<polyline fill="none" stroke="black" points="0,-145.5 109,-145.5 "/>
<polyline fill="none" stroke="black" points="0,-121.5 109,-121.5 "/>
<text text-anchor="start" x="8" y="-106.3" font-family="Times,serif" font-size="14.00">_layout</text>
<text text-anchor="start" x="8" y="-91.3" font-family="Times,serif" font-size="14.00">event_params</text>
<text text-anchor="start" x="8" y="-76.3" font-family="Times,serif" font-size="14.00">set_event</text>
</g>
<!-- ApplicationController -->
<g id="node4" class="node"><title>ApplicationController</title>
<path fill="none" stroke="black" d="M267,-374.5C267,-374.5 379,-374.5 379,-374.5 385,-374.5 391,-380.5 391,-386.5 391,-386.5 391,-456.5 391,-456.5 391,-462.5 385,-468.5 379,-468.5 379,-468.5 267,-468.5 267,-468.5 261,-468.5 255,-462.5 255,-456.5 255,-456.5 255,-386.5 255,-386.5 255,-380.5 261,-374.5 267,-374.5"/>
<text text-anchor="middle" x="323" y="-453.3" font-family="Times,serif" font-size="14.00">ApplicationController</text>
<polyline fill="none" stroke="black" points="255,-445.5 391,-445.5 "/>
<polyline fill="none" stroke="black" points="255,-421.5 391,-421.5 "/>
<polyline fill="none" stroke="black" points="255,-397.5 391,-397.5 "/>
<text text-anchor="start" x="263" y="-382.3" font-family="Times,serif" font-size="14.00">_layout</text>
</g>
<!-- ColoniesController -->
<g id="node5" class="node"><title>ColoniesController</title>
<path fill="none" stroke="black" d="M148,-119.5C148,-119.5 244,-119.5 244,-119.5 250,-119.5 256,-125.5 256,-131.5 256,-131.5 256,-320.5 256,-320.5 256,-326.5 250,-332.5 244,-332.5 244,-332.5 148,-332.5 148,-332.5 142,-332.5 136,-326.5 136,-320.5 136,-320.5 136,-131.5 136,-131.5 136,-125.5 142,-119.5 148,-119.5"/>
<text text-anchor="middle" x="196" y="-317.3" font-family="Times,serif" font-size="14.00">ColoniesController</text>
<polyline fill="none" stroke="black" points="136,-309.5 256,-309.5 "/>
<text text-anchor="start" x="144" y="-294.3" font-family="Times,serif" font-size="14.00">create</text>
<text text-anchor="start" x="144" y="-279.3" font-family="Times,serif" font-size="14.00">destroy</text>
<text text-anchor="start" x="144" y="-264.3" font-family="Times,serif" font-size="14.00">edit</text>
<text text-anchor="start" x="144" y="-249.3" font-family="Times,serif" font-size="14.00">index</text>
<text text-anchor="start" x="144" y="-234.3" font-family="Times,serif" font-size="14.00">new</text>
<text text-anchor="start" x="144" y="-219.3" font-family="Times,serif" font-size="14.00">show</text>
<text text-anchor="start" x="144" y="-204.3" font-family="Times,serif" font-size="14.00">update</text>
<polyline fill="none" stroke="black" points="136,-196.5 256,-196.5 "/>
<polyline fill="none" stroke="black" points="136,-172.5 256,-172.5 "/>
<text text-anchor="start" x="144" y="-157.3" font-family="Times,serif" font-size="14.00">_layout</text>
<text text-anchor="start" x="144" y="-142.3" font-family="Times,serif" font-size="14.00">colony_params</text>
<text text-anchor="start" x="144" y="-127.3" font-family="Times,serif" font-size="14.00">set_colony</text>
</g>
</g>
</svg>
