<?xml version="1.0" encoding="UTF-8" standalone="no"?>
<!DOCTYPE svg PUBLIC "-//W3C//DTD SVG 1.1//EN"
 "http://www.w3.org/Graphics/SVG/1.1/DTD/svg11.dtd">
<!-- Generated by graphviz version 2.36.0 (20140111.2315)
 -->
<!-- Title: models_diagram Pages: 1 -->
<svg width="564pt" height="538pt"
 viewBox="0.00 0.00 564.00 538.00" xmlns="http://www.w3.org/2000/svg" xmlns:xlink="http://www.w3.org/1999/xlink">
<g id="graph0" class="graph" transform="scale(1 1) rotate(0) translate(4 534)">
<title>models_diagram</title>
<polygon fill="none" stroke="none" points="-4,4 -4,-534 560,-534 560,4 -4,4"/>
<!-- _diagram_info -->
<g id="node1" class="node"><title>_diagram_info</title>
<text text-anchor="start" x="7" y="-500.6" font-family="Times,serif" font-size="13.00">Models diagram</text>
<text text-anchor="start" x="7" y="-486.6" font-family="Times,serif" font-size="13.00">Date: May 08 2017 &#45; 12:32</text>
<text text-anchor="start" x="7" y="-472.6" font-family="Times,serif" font-size="13.00">Migration version: 20170506141217</text>
<text text-anchor="start" x="7" y="-458.6" font-family="Times,serif" font-size="13.00">Generated by RailRoady 1.5.2</text>
<text text-anchor="start" x="7" y="-444.6" font-family="Times,serif" font-size="13.00">http://railroady.prestonlee.com</text>
</g>
<!-- ApplicationRecord -->
<g id="node2" class="node"><title>ApplicationRecord</title>
<ellipse fill="none" stroke="black" cx="308" cy="-476" rx="77.0154" ry="18"/>
<text text-anchor="middle" x="308" y="-472.3" font-family="Times,serif" font-size="14.00">ApplicationRecord</text>
</g>
<!-- Event -->
<g id="node3" class="node"><title>Event</title>
<path fill="none" stroke="black" d="M403.5,-0.5C403.5,-0.5 534.5,-0.5 534.5,-0.5 540.5,-0.5 546.5,-6.5 546.5,-12.5 546.5,-12.5 546.5,-139.5 546.5,-139.5 546.5,-145.5 540.5,-151.5 534.5,-151.5 534.5,-151.5 403.5,-151.5 403.5,-151.5 397.5,-151.5 391.5,-145.5 391.5,-139.5 391.5,-139.5 391.5,-12.5 391.5,-12.5 391.5,-6.5 397.5,-0.5 403.5,-0.5"/>
<text text-anchor="middle" x="469" y="-136.3" font-family="Times,serif" font-size="14.00">Event</text>
<polyline fill="none" stroke="black" points="391.5,-128.5 546.5,-128.5 "/>
<text text-anchor="start" x="399.5" y="-113.3" font-family="Times,serif" font-size="14.00">id :INTEGER</text>
<text text-anchor="start" x="399.5" y="-98.3" font-family="Times,serif" font-size="14.00">description :text</text>
<text text-anchor="start" x="399.5" y="-83.3" font-family="Times,serif" font-size="14.00">date_of_event :date</text>
<text text-anchor="start" x="399.5" y="-68.3" font-family="Times,serif" font-size="14.00">solved :boolean</text>
<text text-anchor="start" x="399.5" y="-53.3" font-family="Times,serif" font-size="14.00">solution_description :text</text>
<text text-anchor="start" x="399.5" y="-38.3" font-family="Times,serif" font-size="14.00">created_at :datetime</text>
<text text-anchor="start" x="399.5" y="-23.3" font-family="Times,serif" font-size="14.00">updated_at :datetime</text>
<text text-anchor="start" x="399.5" y="-8.3" font-family="Times,serif" font-size="14.00">cat_id :integer</text>
</g>
<!-- Colony -->
<g id="node4" class="node"><title>Colony</title>
<path fill="none" stroke="black" d="M415.5,-423C415.5,-423 522.5,-423 522.5,-423 528.5,-423 534.5,-429 534.5,-435 534.5,-435 534.5,-517 534.5,-517 534.5,-523 528.5,-529 522.5,-529 522.5,-529 415.5,-529 415.5,-529 409.5,-529 403.5,-523 403.5,-517 403.5,-517 403.5,-435 403.5,-435 403.5,-429 409.5,-423 415.5,-423"/>
<text text-anchor="middle" x="469" y="-513.8" font-family="Times,serif" font-size="14.00">Colony</text>
<polyline fill="none" stroke="black" points="403.5,-506 534.5,-506 "/>
<text text-anchor="start" x="411.5" y="-490.8" font-family="Times,serif" font-size="14.00">id :INTEGER</text>
<text text-anchor="start" x="411.5" y="-475.8" font-family="Times,serif" font-size="14.00">description :text</text>
<text text-anchor="start" x="411.5" y="-460.8" font-family="Times,serif" font-size="14.00">created_at :datetime</text>
<text text-anchor="start" x="411.5" y="-445.8" font-family="Times,serif" font-size="14.00">updated_at :datetime</text>
<text text-anchor="start" x="411.5" y="-430.8" font-family="Times,serif" font-size="14.00">code :varchar</text>
</g>
<!-- Cat -->
<g id="node5" class="node"><title>Cat</title>
<path fill="none" stroke="black" d="M393.5,-189C393.5,-189 544.5,-189 544.5,-189 550.5,-189 556.5,-195 556.5,-201 556.5,-201 556.5,-373 556.5,-373 556.5,-379 550.5,-385 544.5,-385 544.5,-385 393.5,-385 393.5,-385 387.5,-385 381.5,-379 381.5,-373 381.5,-373 381.5,-201 381.5,-201 381.5,-195 387.5,-189 393.5,-189"/>
<text text-anchor="middle" x="469" y="-369.8" font-family="Times,serif" font-size="14.00">Cat</text>
<polyline fill="none" stroke="black" points="381.5,-362 556.5,-362 "/>
<text text-anchor="start" x="389.5" y="-346.8" font-family="Times,serif" font-size="14.00">id :INTEGER</text>
<text text-anchor="start" x="389.5" y="-331.8" font-family="Times,serif" font-size="14.00">code :varchar</text>
<text text-anchor="start" x="389.5" y="-316.8" font-family="Times,serif" font-size="14.00">name :varchar</text>
<text text-anchor="start" x="389.5" y="-301.8" font-family="Times,serif" font-size="14.00">birthday :date</text>
<text text-anchor="start" x="389.5" y="-286.8" font-family="Times,serif" font-size="14.00">created_at :datetime</text>
<text text-anchor="start" x="389.5" y="-271.8" font-family="Times,serif" font-size="14.00">updated_at :datetime</text>
<text text-anchor="start" x="389.5" y="-256.8" font-family="Times,serif" font-size="14.00">colony_id :integer</text>
<text text-anchor="start" x="389.5" y="-241.8" font-family="Times,serif" font-size="14.00">image_file_name :varchar</text>
<text text-anchor="start" x="389.5" y="-226.8" font-family="Times,serif" font-size="14.00">image_content_type :varchar</text>
<text text-anchor="start" x="389.5" y="-211.8" font-family="Times,serif" font-size="14.00">image_file_size :integer</text>
<text text-anchor="start" x="389.5" y="-196.8" font-family="Times,serif" font-size="14.00">image_updated_at :datetime</text>
</g>
<!-- Colony&#45;&gt;Cat -->
<g id="edge1" class="edge"><title>Colony&#45;&gt;Cat</title>
<path fill="none" stroke="#6f93bf" d="M469,-414.746C469,-408.54 469,-402.11 469,-395.586"/>
<ellipse fill="none" stroke="#6f93bf" cx="469" cy="-418.91" rx="4" ry="4"/>
<polygon fill="#6f93bf" stroke="#6f93bf" points="469,-395.276 473.5,-385.276 469,-390.276 469,-385.276 469,-385.276 469,-385.276 469,-390.276 464.5,-385.276 469,-395.276 469,-395.276"/>
</g>
<!-- Cat&#45;&gt;Event -->
<g id="edge2" class="edge"><title>Cat&#45;&gt;Event</title>
<path fill="none" stroke="#24cd74" d="M469,-180.645C469,-174.389 469,-168.137 469,-161.98"/>
<ellipse fill="none" stroke="#24cd74" cx="469" cy="-184.842" rx="4" ry="4"/>
<polygon fill="#24cd74" stroke="#24cd74" points="469,-161.721 473.5,-151.721 469,-156.721 469,-151.721 469,-151.721 469,-151.721 469,-156.721 464.5,-151.721 469,-161.721 469,-161.721"/>
</g>
</g>
</svg>
