<?xml version="1.0" encoding="UTF-8" standalone="no"?>
<!DOCTYPE svg PUBLIC "-//W3C//DTD SVG 1.1//EN"
 "http://www.w3.org/Graphics/SVG/1.1/DTD/svg11.dtd">
<!-- Generated by graphviz version 2.36.0 (20140111.2315)
 -->
<!-- Title: models_diagram Pages: 1 -->
<svg width="484pt" height="230pt"
 viewBox="0.00 0.00 484.00 230.00" xmlns="http://www.w3.org/2000/svg" xmlns:xlink="http://www.w3.org/1999/xlink">
<g id="graph0" class="graph" transform="scale(1 1) rotate(0) translate(4 226)">
<title>models_diagram</title>
<polygon fill="none" stroke="none" points="-4,4 -4,-226 480,-226 480,4 -4,4"/>
<!-- _diagram_info -->
<g id="node1" class="node"><title>_diagram_info</title>
<text text-anchor="start" x="7" y="-207.6" font-family="Times,serif" font-size="13.00">Models diagram</text>
<text text-anchor="start" x="7" y="-193.6" font-family="Times,serif" font-size="13.00">Date: May 08 2017 &#45; 12:32</text>
<text text-anchor="start" x="7" y="-179.6" font-family="Times,serif" font-size="13.00">Migration version: 20170506141217</text>
<text text-anchor="start" x="7" y="-165.6" font-family="Times,serif" font-size="13.00">Generated by RailRoady 1.5.2</text>
<text text-anchor="start" x="7" y="-151.6" font-family="Times,serif" font-size="13.00">http://railroady.prestonlee.com</text>
</g>
<!-- ApplicationRecord -->
<g id="node2" class="node"><title>ApplicationRecord</title>
<ellipse fill="none" stroke="black" cx="308" cy="-183" rx="77.0154" ry="18"/>
<text text-anchor="middle" x="308" y="-179.3" font-family="Times,serif" font-size="14.00">ApplicationRecord</text>
</g>
<!-- Event -->
<g id="node3" class="node"><title>Event</title>
<ellipse fill="none" stroke="black" cx="440" cy="-18" rx="31.2965" ry="18"/>
<text text-anchor="middle" x="440" y="-14.3" font-family="Times,serif" font-size="14.00">Event</text>
</g>
<!-- Colony -->
<g id="node4" class="node"><title>Colony</title>
<ellipse fill="none" stroke="black" cx="440" cy="-183" rx="36.096" ry="18"/>
<text text-anchor="middle" x="440" y="-179.3" font-family="Times,serif" font-size="14.00">Colony</text>
</g>
<!-- Cat -->
<g id="node5" class="node"><title>Cat</title>
<ellipse fill="none" stroke="black" cx="440" cy="-90" rx="27" ry="18"/>
<text text-anchor="middle" x="440" y="-86.3" font-family="Times,serif" font-size="14.00">Cat</text>
</g>
<!-- Colony&#45;&gt;Cat -->
<g id="edge1" class="edge"><title>Colony&#45;&gt;Cat</title>
<path fill="none" stroke="#bd27cb" d="M440,-156.729C440,-144.725 440,-130.362 440,-118.129"/>
<ellipse fill="none" stroke="#bd27cb" cx="440" cy="-160.884" rx="4" ry="4"/>
<polygon fill="#bd27cb" stroke="#bd27cb" points="440,-118.04 444.5,-108.04 440,-113.04 440,-108.04 440,-108.04 440,-108.04 440,-113.04 435.5,-108.04 440,-118.04 440,-118.04"/>
</g>
<!-- Cat&#45;&gt;Event -->
<g id="edge2" class="edge"><title>Cat&#45;&gt;Event</title>
<path fill="none" stroke="#77f69e" d="M440,-63.6398C440,-58.0629 440,-52.1319 440,-46.4761"/>
<ellipse fill="none" stroke="#77f69e" cx="440" cy="-67.6966" rx="4" ry="4"/>
<polygon fill="#77f69e" stroke="#77f69e" points="440,-46.1043 444.5,-36.1043 440,-41.1043 440,-36.1043 440,-36.1043 440,-36.1043 440,-41.1043 435.5,-36.1044 440,-46.1043 440,-46.1043"/>
</g>
</g>
</svg>
